<svg version="1.2" xmlns="http://www.w3.org/2000/svg" viewBox="0 0 205 160" width="205" height="160">
	<title>spook_vertical_black-svg</title>
	<style>
		.s0 { fill: #000000 } 
	</style>
	<path id="Layer" class="s0" d="m167 89.7l-4.6-1.2c-0.2 1-0.7 2.8-1.6 5l-3.3-1.8-2.3 4.2 3.6 2c-1 2-2.2 4.2-3.8 6.3l-2.9-2.7-3.2 3.5 3.1 2.9c-1.9 2.1-4.2 4-6.9 5.7l-2.7-5.4-4.2 2 2.7 5.6c-2.8 1.3-6 2.2-9.6 2.6l-0.9-7.4-4.7 0.6 0.9 7.1c-16.6 0-21.1-12.5-21.9-15.8l7.5-9.8c0.9-1.2 0.3-2.8-1.2-3.3 0 0-5-1.9-8.9-1.9-3.8 0-8.8 1.9-8.8 1.9-1.5 0.5-2.1 2.1-1.2 3.3l7.5 9.8c-0.8 3.3-5.3 15.8-21.9 15.8l0.9-7.1-4.7-0.6-0.9 7.4c-3.6-0.4-6.8-1.3-9.6-2.6l2.7-5.5-4.2-2.1-2.7 5.4c-2.7-1.7-5-3.6-6.9-5.7l3.1-2.9-3.3-3.5-2.9 2.7c-1.5-2.1-2.8-4.3-3.8-6.3l3.7-2-2.3-4.2-3.3 1.9c-0.9-2.3-1.4-4.1-1.6-5.1l-4.6 1.2c0.3 1.2 0.9 3.4 2 6.2l-4.6 2.5 2.3 4.2 4.3-2.4c1.2 2.3 2.6 4.8 4.5 7.3l-4.7 4.3 3.3 3.4 4.4-4.1c2.3 2.5 5 4.8 8.3 6.8l-2.9 5.8 4.2 2.1 2.9-5.7c3.2 1.4 6.9 2.5 11.1 3l-0.8 6.6 4.7 0.5 0.8-6.7c3.9 0 7.2-0.5 10.2-1.5l1.1 5.1 4.6-1.1-1.3-5.8c5-2.8 8.4-6.8 10.4-10.7 2.1 3.9 5.5 7.9 10.5 10.7l-1.3 5.8 4.6 1.1 1.1-5.1c2.9 0.9 6 1.5 9.7 1.5q0.2 0 0.4 0l0.9 6.7 4.7-0.5-0.8-6.6c4.2-0.5 7.9-1.6 11.1-3l2.9 5.7 4.2-2.1-2.9-5.8c3.3-2 6-4.3 8.3-6.8l4.4 4.1 3.3-3.4-4.7-4.3c1.9-2.5 3.3-5 4.5-7.3l4.3 2.4 2.3-4.2-4.6-2.5c1.1-2.8 1.7-5 2-6.2z"/>
	<path id="Layer" fill-rule="evenodd" class="s0" d="m183.6 101q0 0 0 0 0 0 0 0zm0.1 0q-0.3 3.4-0.9 6.6c3.7 1.1 10.3 3.2 19.8 7.2l-1.8 4.4c-9.1-3.9-15.5-5.9-19.1-6.9q-1 3.5-2.4 6.8c3.3 1.1 9.9 3.6 18.8 8.3l-2.3 4.2c-9.2-5-15.9-7.3-18.7-8.2q-2.4 4.2-5.7 7.9c-13.3 14.8-36.6 22.3-69.3 22.3-32.7 0-56-7.5-69.2-22.3-2.2-2.5-4.1-5.1-5.7-7.9-2.8 0.9-9.5 3.2-18.8 8.2l-2.2-4.2c8.9-4.7 15.4-7.2 18.8-8.3q-1.5-3.3-2.5-6.8c-3.5 1-9.9 3-19 6.9l-1.9-4.4c9.5-4 16.2-6.1 19.9-7.2q-0.6-3.2-0.9-6.6c-3.7 0.9-9.7 2.6-17 6l-2-4.3c8.3-3.9 15-5.7 18.8-6.5q0-4.5 0.5-9.2c1.1-9.6 3.6-18.5 7.5-26.5 0-5.6 0.5-11.2 1.5-16.6 4.8-26.1 19.8-39.7 20.4-40.3 1.1-0.9 2.5-1.1 3.8-0.5 0.7 0.4 16.4 8.6 22.4 18.8 8.3-2.4 16.9-3.6 25.6-3.6 8.8 0 17.4 1.2 25.6 3.6 6.1-10.2 21.8-18.4 22.5-18.8 1.2-0.6 2.7-0.4 3.7 0.5 0.9 0.8 22 20.1 22 56.9 3.9 8 6.4 16.9 7.4 26.5q0.6 4.7 0.5 9.2c3.9 0.8 10.6 2.7 18.9 6.5l-2 4.3c-7.3-3.4-13.3-5.1-17-6zm-7-13.3c-1-9.1-3.4-17.5-7.1-24.9q-0.4-0.7-0.4-1.6c0.3-28.5-13.3-45.8-18.1-51-5.7 3.3-15.9 10.3-18.6 16.9-0.6 1.6-2.4 2.4-4 1.9-8.5-2.7-17.3-4-26.4-4-9 0-17.9 1.3-26.3 4-1.7 0.5-3.5-0.3-4.1-1.9-2.6-6.6-12.9-13.6-18.6-16.9-3.7 4.1-13.2 16-16.7 35-1 5.1-1.4 10.6-1.4 16q0 0.9-0.3 1.6c-3.8 7.4-6.2 15.8-7.2 24.9-1.8 16.3 1.7 29.5 10.3 39.1 12 13.4 33.6 20.1 64.3 20.1 30.8 0 52.4-6.7 64.3-20.1 8.7-9.6 12.1-22.8 10.3-39.1z"/>
	<path id="Layer" class="s0" d="m140.3 32.5c6.6 3.3 12.3 7.8 16 11.1 1.6 1.4 4.1 0.1 3.8-2-1.6-11.5-5.9-17.9-8.3-20.7-0.8-1-2.3-1.1-3.3-0.2l-8.7 8.1c-1.2 1.1-0.9 3 0.5 3.7z"/>
	<path id="Layer" class="s0" d="m47.9 43.6c3.7-3.3 9.5-7.8 16.1-11.1 1.4-0.7 1.6-2.6 0.5-3.7l-8.8-8.1c-0.9-0.9-2.4-0.8-3.2 0.2-2.4 2.8-6.7 9.2-8.3 20.7-0.3 2.1 2.2 3.4 3.7 2z"/>
	<path id="Layer" class="s0" d="m135.2 89.5c-10.6 0-19.2-8.5-19.2-19.2 0-10.6 8.6-19.2 19.2-19.2 10.7 0 19.2 8.6 19.2 19.2 0 10.7-8.5 19.2-19.2 19.2z"/>
	<path id="Layer" class="s0" d="m68.9 89.4c-10.6 0-19.1-8.6-19.1-19.2 0-10.5 8.5-19.1 19.1-19.1 10.6 0 19.1 8.6 19.1 19.1 0 10.6-8.5 19.2-19.1 19.2z"/>
</svg>