<?xml version="1.0" encoding="UTF-8"?><svg id="Layer_1" xmlns="http://www.w3.org/2000/svg" viewBox="0 0 301.22 301.22"><defs><style>.cls-1{stroke-width:0px;}</style></defs><path class="cls-1" d="m84.7,218.13c0-4.43-2.19-7.91-6.57-10.43-1.8-1.04-4.1-2.01-6.9-2.91-2.8-.9-4.76-1.77-5.87-2.62-1.11-.84-1.67-1.78-1.67-2.82,0-1.19.51-2.17,1.52-2.93,1.01-.77,2.39-1.16,4.13-1.16s3.09.46,4.1,1.36c1.01.91,1.52,2.19,1.52,3.84h9.74c0-2.47-.64-4.66-1.92-6.58-1.28-1.92-3.07-3.4-5.38-4.44-2.31-1.04-4.92-1.56-7.83-1.56s-5.68.48-8.07,1.43c-2.39.96-4.24,2.29-5.55,4.01-1.31,1.72-1.96,3.7-1.96,5.94,0,4.51,2.63,8.05,7.87,10.63,1.61.8,3.69,1.62,6.23,2.48,2.54.85,4.32,1.68,5.33,2.48,1.01.8,1.52,1.91,1.52,3.34,0,1.26-.47,2.24-1.4,2.94-.94.69-2.21,1.04-3.83,1.04-2.52,0-4.35-.52-5.47-1.54-1.12-1.03-1.68-2.63-1.68-4.8h-9.79c0,2.67.67,5.03,2.02,7.08,1.34,2.05,3.35,3.66,6.01,4.84,2.66,1.18,5.63,1.77,8.92,1.77,4.66,0,8.32-1.01,10.99-3.03s4.01-4.8,4.01-8.35Z"/><path class="cls-1" d="m98.98,215.21h6.23c4.93,0,8.81-1.18,11.64-3.55,2.83-2.37,4.24-5.52,4.24-9.47,0-2.67-.65-5.06-1.96-7.16-1.31-2.11-3.15-3.73-5.53-4.87-2.39-1.14-5.12-1.71-8.22-1.71h-16.16v40.51h9.77v-13.74Zm0-19.22h6.51c1.76.02,3.15.59,4.17,1.72,1.02,1.13,1.53,2.64,1.53,4.53,0,1.72-.5,3.06-1.49,4.01-.99.95-2.44,1.42-4.33,1.42h-6.4v-11.69Z"/><polygon class="cls-1" points="235.41 188.44 226.67 201.16 223.28 206.31 223.28 188.44 213.51 188.44 213.51 228.95 223.28 228.95 223.28 218.27 227.29 213.87 235.91 228.95 247.48 228.95 233.8 206.36 247.48 188.44 235.41 188.44"/><path class="cls-1" d="m166.2,216.8c3.24,8.28,11.29,14.15,20.72,14.15,12.29,0,22.25-9.96,22.25-22.25s-9.96-22.25-22.25-22.25c-9.43,0-17.48,5.87-20.72,14.15-3.24-8.28-11.29-14.15-20.72-14.15-12.29,0-22.25,9.96-22.25,22.25s9.96,22.25,22.25,22.25c9.43,0,17.48-5.87,20.72-14.15Zm20.72-22.09c7.72,0,13.99,6.26,13.99,13.99s-6.26,13.99-13.99,13.99-13.99-6.26-13.99-13.99,6.26-13.99,13.99-13.99Zm-55.43,13.99c0-7.72,6.26-13.99,13.99-13.99s13.99,6.26,13.99,13.99-6.26,13.99-13.99,13.99-13.99-6.26-13.99-13.99Z"/><path class="cls-1" d="m81.15,241.85c.51-.39,1.2-.58,2.07-.58s1.55.23,2.06.68c.51.46.76,1.1.76,1.93h4.88c0-1.24-.32-2.34-.96-3.3s-1.54-1.7-2.7-2.23c-1.16-.52-2.47-.78-3.93-.78s-2.85.24-4.05.72c-1.2.48-2.13,1.15-2.78,2.01-.66.86-.98,1.85-.98,2.98,0,2.26,1.32,4.04,3.95,5.33.81.4,1.85.81,3.12,1.24,1.27.43,2.16.84,2.67,1.24.51.4.76.96.76,1.67,0,.63-.24,1.12-.7,1.47-.47.35-1.11.52-1.92.52-1.26,0-2.18-.26-2.74-.77-.56-.52-.84-1.32-.84-2.41h-4.91c0,1.34.34,2.52,1.01,3.55.67,1.03,1.68,1.84,3.01,2.43,1.33.59,2.82.89,4.47.89,2.33,0,4.17-.51,5.51-1.52,1.34-1.01,2.01-2.41,2.01-4.19,0-2.22-1.1-3.97-3.29-5.23-.9-.52-2.06-1.01-3.46-1.46-1.4-.45-2.39-.89-2.94-1.31-.56-.42-.84-.89-.84-1.42,0-.59.25-1.09.76-1.47Z"/><polygon class="cls-1" points="115.43 258.16 120.33 258.16 120.33 250.07 128.22 250.07 128.22 246.3 120.33 246.3 120.33 241.63 129.02 241.63 129.02 237.85 115.43 237.85 115.43 258.16"/><polygon class="cls-1" points="130.33 241.63 136.31 241.63 136.31 258.16 141.21 258.16 141.21 241.63 147.31 241.63 147.31 237.85 130.33 237.85 130.33 241.63"/><polygon class="cls-1" points="167.83 237.85 165.5 250.59 162.66 237.85 158.51 237.85 155.72 250.59 153.39 237.85 148.52 237.85 152.84 258.16 157.91 258.16 160.57 246.58 163.29 258.16 168.37 258.16 172.68 237.85 167.83 237.85"/><path class="cls-1" d="m179.17,237.85l-7.45,20.31h5.23l1.17-3.79h6.71l1.19,3.79h5.26l-7.51-20.31h-4.6Zm.13,12.74l2.18-7.04,2.19,7.04h-4.37Z"/><path class="cls-1" d="m207.65,247.49c.57-.93.86-2.1.86-3.51,0-1.95-.68-3.46-2.04-4.53s-3.24-1.6-5.65-1.6h-7.99v20.31h4.9v-7.18h2.65l3.59,7.18h5.25v-.21l-4.24-8.2c1.22-.58,2.11-1.33,2.68-2.26Zm-4.73-1.02c-.47.49-1.17.73-2.1.73h-3.1v-5.59h3.1c.92,0,1.62.25,2.09.75.47.5.71,1.19.71,2.06s-.23,1.56-.7,2.05Z"/><polygon class="cls-1" points="211.32 258.16 225.31 258.16 225.31 254.39 216.21 254.39 216.21 249.54 223.92 249.54 223.92 245.91 216.21 245.91 216.21 241.63 225.34 241.63 225.34 237.85 211.32 237.85 211.32 258.16"/><path class="cls-1" d="m103.01,237.57c-5.99,0-10.85,4.86-10.85,10.85s4.86,10.85,10.85,10.85,10.85-4.86,10.85-10.85-4.86-10.85-10.85-10.85Zm0,17.67c-3.77,0-6.82-3.05-6.82-6.82s3.05-6.82,6.82-6.82,6.82,3.05,6.82,6.82-3.05,6.82-6.82,6.82Z"/><path class="cls-1" d="m215,113.67l-4.6-1.15c-.24.98-.75,2.78-1.62,5.03l-3.3-1.82-2.29,4.16,3.66,2.01c-1.01,2.02-2.27,4.17-3.82,6.3l-2.9-2.7-3.23,3.47,3.11,2.89c-1.95,2.09-4.23,4.06-6.9,5.73l-2.69-5.44-4.25,2.1,2.74,5.55c-2.84,1.25-6.02,2.16-9.6,2.62l-.89-7.41-4.71.56.86,7.16c-16.59-.04-21.04-12.53-21.92-15.81l7.52-9.8c.91-1.19.35-2.83-1.15-3.35,0,0-5.07-1.85-8.88-1.85s-8.88,1.85-8.88,1.85c-1.5.52-2.07,2.16-1.15,3.35l7.52,9.8c-.88,3.29-5.34,15.78-21.93,15.82l.86-7.16-4.71-.56-.89,7.41c-3.58-.46-6.76-1.37-9.6-2.62l2.74-5.55-4.25-2.1-2.69,5.44c-2.67-1.67-4.95-3.64-6.9-5.73l3.11-2.89-3.23-3.47-2.9,2.7c-1.55-2.13-2.81-4.28-3.82-6.3l3.66-2.01-2.29-4.16-3.3,1.82c-.87-2.25-1.38-4.05-1.62-5.03l-4.6,1.15c.29,1.17.92,3.4,2.04,6.18l-4.64,2.55,2.29,4.16,4.31-2.37c1.18,2.33,2.65,4.81,4.48,7.27l-4.63,4.3,3.23,3.47,4.44-4.13c2.31,2.49,5.04,4.82,8.26,6.78l-2.87,5.81,4.25,2.1,2.82-5.72c3.28,1.46,6.98,2.53,11.15,3.05l-.78,6.52,4.71.56.81-6.74c3.83.05,7.19-.49,10.12-1.43l1.16,5.05,4.62-1.06-1.35-5.87c5.05-2.73,8.41-6.77,10.45-10.65,2.04,3.87,5.41,7.9,10.46,10.64l-1.35,5.88,4.62,1.06,1.16-5.06c2.82.91,6.01,1.45,9.66,1.45.15,0,.3,0,.45-.01l.81,6.74,4.71-.56-.78-6.52c4.17-.52,7.87-1.59,11.15-3.05l2.82,5.72,4.25-2.1-2.87-5.81c3.22-1.96,5.95-4.3,8.26-6.78l4.44,4.13,3.23-3.47-4.62-4.3c1.83-2.46,3.3-4.94,4.48-7.27l4.31,2.37,2.29-4.16-4.64-2.55c1.11-2.78,1.74-5.01,2.04-6.18Z"/><path class="cls-1" d="m231.64,125.03c3.7.87,9.73,2.61,17.04,5.98l1.99-4.31c-8.29-3.82-14.99-5.66-18.84-6.51.01-2.96-.14-6.02-.49-9.18-1.06-9.6-3.57-18.51-7.47-26.49.03-36.84-21.05-56.1-21.96-56.91-1.03-.92-2.52-1.11-3.74-.47-.72.37-16.38,8.59-22.43,18.73-8.27-2.34-16.87-3.52-25.62-3.52s-17.35,1.18-25.62,3.52c-6.05-10.14-21.71-18.35-22.43-18.73-1.23-.64-2.71-.45-3.74.47-.63.57-15.59,14.18-20.46,40.34-1,5.36-1.5,10.93-1.49,16.56-3.9,7.99-6.41,16.89-7.47,26.49-.35,3.16-.5,6.22-.49,9.18-3.85.84-10.54,2.68-18.84,6.51l1.99,4.31c7.31-3.37,13.35-5.12,17.04-5.98.17,2.27.46,4.48.86,6.62-3.66,1.03-10.34,3.16-19.83,7.22l1.87,4.36c9.04-3.87,15.49-5.94,19.03-6.95.66,2.37,1.49,4.65,2.46,6.83-3.36,1.1-9.95,3.56-18.81,8.33l2.25,4.18c9.23-4.97,15.95-7.34,18.75-8.22,1.62,2.81,3.5,5.45,5.7,7.9,13.24,14.78,36.54,22.27,69.24,22.27s56.01-7.49,69.24-22.27c2.19-2.45,4.08-5.09,5.7-7.9,2.8.88,9.52,3.25,18.75,8.22l2.25-4.18c-8.86-4.77-15.45-7.23-18.81-8.33.98-2.18,1.8-4.46,2.46-6.83,3.54,1.01,10,3.08,19.03,6.95l1.87-4.36c-9.49-4.06-16.17-6.19-19.83-7.22.4-2.14.69-4.34.86-6.62Zm-17.22,25.83c-11.92,13.31-33.56,20.06-64.3,20.06s-52.37-6.75-64.3-20.06c-8.65-9.66-12.12-22.82-10.32-39.12,1-9.1,3.42-17.5,7.16-24.96.24-.47.36-.99.35-1.52-.05-5.48.41-10.9,1.38-16.09,3.52-18.93,12.96-30.82,16.75-34.96,5.7,3.3,15.94,10.28,18.56,16.86.64,1.62,2.43,2.46,4.09,1.94,8.44-2.67,17.3-4.03,26.33-4.03s17.89,1.35,26.33,4.03c1.67.53,3.45-.32,4.09-1.94,2.61-6.58,12.86-13.57,18.56-16.86,4.76,5.18,18.38,22.52,18.12,51.05,0,.53.12,1.05.35,1.52,3.75,7.46,6.16,15.86,7.16,24.96,1.8,16.3-1.68,29.46-10.32,39.12Z"/><path class="cls-1" d="m188.29,56.5c6.6,3.27,12.35,7.81,16.03,11.08,1.57,1.39,4.04.08,3.75-2-1.59-11.51-5.89-17.91-8.27-20.68-.84-.98-2.31-1.06-3.26-.19l-8.77,8.1c-1.16,1.07-.9,2.99.52,3.69Z"/><path class="cls-1" d="m95.93,67.58c3.68-3.27,9.42-7.82,16.03-11.08,1.42-.7,1.68-2.62.52-3.69l-8.77-8.1c-.95-.87-2.42-.79-3.26.19-2.38,2.77-6.67,9.17-8.27,20.68-.29,2.08,2.18,3.4,3.75,2Z"/><circle class="cls-1" cx="183.24" cy="94.34" r="19.2"/><circle class="cls-1" cx="116.91" cy="94.25" r="19.11"/></svg>