<?xml version="1.0" encoding="UTF-8"?><svg id="Layer_1" xmlns="http://www.w3.org/2000/svg" viewBox="0 0 436.39 166.44"><defs><style>.cls-1{stroke-width:0px;}</style></defs><path class="cls-1" d="m203.52,71.25c0-5.53-2.73-9.86-8.19-13.01-2.24-1.3-5.11-2.5-8.6-3.63-3.49-1.12-5.93-2.21-7.32-3.26-1.39-1.05-2.08-2.22-2.08-3.52,0-1.48.63-2.7,1.89-3.66,1.26-.96,2.98-1.44,5.15-1.44s3.86.57,5.11,1.7c1.26,1.13,1.89,2.73,1.89,4.79h12.14c0-3.07-.8-5.81-2.39-8.2-1.6-2.39-3.83-4.23-6.71-5.53-2.88-1.3-6.13-1.94-9.76-1.94s-7.08.6-10.06,1.78c-2.98,1.19-5.29,2.86-6.92,4.99-1.63,2.14-2.45,4.61-2.45,7.41,0,5.62,3.27,10.04,9.82,13.25,2.01.99,4.6,2.02,7.77,3.09,3.17,1.06,5.38,2.09,6.64,3.09,1.26.99,1.89,2.38,1.89,4.16,0,1.57-.58,2.79-1.75,3.66-1.17.86-2.76,1.3-4.77,1.3-3.14,0-5.42-.64-6.81-1.92-1.4-1.29-2.1-3.28-2.1-5.98h-12.21c0,3.33.84,6.27,2.52,8.83,1.67,2.55,4.17,4.57,7.49,6.04,3.32,1.47,7.02,2.2,11.11,2.2,5.8,0,10.37-1.26,13.7-3.78,3.33-2.52,4.99-5.99,4.99-10.41Z"/><path class="cls-1" d="m221.33,67.61h7.77c6.15,0,10.99-1.48,14.51-4.42,3.53-2.95,5.29-6.89,5.29-11.81,0-3.33-.81-6.31-2.45-8.93-1.63-2.63-3.93-4.65-6.9-6.07-2.97-1.42-6.39-2.13-10.25-2.13h-20.15v50.5h12.17v-17.13Zm0-23.97h8.12c2.2.02,3.93.74,5.2,2.15,1.27,1.41,1.91,3.3,1.91,5.65,0,2.15-.62,3.82-1.85,4.99-1.24,1.18-3.04,1.77-5.39,1.77h-7.98v-14.57Z"/><polygon class="cls-1" points="406.46 34.24 391.41 34.24 380.51 50.09 376.28 56.51 376.28 34.24 364.11 34.24 364.11 84.74 376.28 84.74 376.28 71.42 381.28 65.94 392.03 84.74 406.46 84.74 389.39 56.58 406.46 34.24"/><path class="cls-1" d="m305.12,69.59c4.04,10.32,14.08,17.64,25.83,17.64,15.32,0,27.73-12.42,27.73-27.73s-12.42-27.73-27.73-27.73c-11.75,0-21.79,7.31-25.83,17.64-4.04-10.32-14.08-17.64-25.83-17.64-15.32,0-27.73,12.42-27.73,27.73s12.42,27.73,27.73,27.73c11.75,0,21.79-7.31,25.83-17.64Zm25.83-27.53c9.63,0,17.44,7.81,17.44,17.44s-7.81,17.44-17.44,17.44-17.44-7.81-17.44-17.44,7.81-17.44,17.44-17.44Zm-69.1,17.44c0-9.63,7.81-17.44,17.44-17.44s17.44,7.81,17.44,17.44-7.81,17.44-17.44,17.44-17.44-7.81-17.44-17.44Z"/><path class="cls-1" d="m199.09,100.81c.63-.48,1.49-.72,2.58-.72s1.93.28,2.57.85c.63.57.95,1.37.95,2.4h6.09c0-1.54-.4-2.91-1.2-4.11-.8-1.2-1.92-2.12-3.37-2.77-1.44-.65-3.08-.97-4.9-.97s-3.55.3-5.04.9c-1.5.6-2.65,1.43-3.47,2.5-.82,1.07-1.23,2.31-1.23,3.71,0,2.82,1.64,5.03,4.92,6.64,1.01.5,2.31,1.01,3.9,1.55,1.59.53,2.7,1.05,3.33,1.55.63.5.95,1.19.95,2.09,0,.79-.29,1.4-.88,1.83-.59.43-1.38.65-2.39.65-1.58,0-2.72-.32-3.42-.97-.7-.64-1.05-1.64-1.05-3h-6.12c0,1.67.42,3.15,1.26,4.43.84,1.28,2.09,2.29,3.76,3.03,1.66.74,3.52,1.1,5.57,1.1,2.91,0,5.2-.63,6.87-1.9,1.67-1.26,2.5-3,2.5-5.22,0-2.77-1.37-4.94-4.1-6.52-1.12-.65-2.56-1.25-4.31-1.82-1.75-.56-2.97-1.11-3.67-1.63-.7-.53-1.04-1.12-1.04-1.77,0-.74.32-1.35.95-1.83Z"/><polygon class="cls-1" points="241.83 121.15 247.93 121.15 247.93 111.07 257.78 111.07 257.78 106.37 247.93 106.37 247.93 100.54 258.77 100.54 258.77 95.83 241.83 95.83 241.83 121.15"/><polygon class="cls-1" points="260.41 100.54 267.87 100.54 267.87 121.15 273.97 121.15 273.97 100.54 281.57 100.54 281.57 95.83 260.41 95.83 260.41 100.54"/><polygon class="cls-1" points="307.15 95.83 304.25 111.71 300.72 95.83 295.53 95.83 292.06 111.71 289.15 95.83 283.08 95.83 288.47 121.15 294.79 121.15 298.11 106.72 301.5 121.15 307.83 121.15 313.2 95.83 307.15 95.83"/><path class="cls-1" d="m321.29,95.83l-9.29,25.32h6.52l1.46-4.73h8.37l1.48,4.73h6.56l-9.36-25.32h-5.74Zm.16,15.88l2.71-8.78,2.73,8.78h-5.44Z"/><path class="cls-1" d="m356.79,107.85c.71-1.16,1.07-2.62,1.07-4.38,0-2.43-.85-4.31-2.54-5.65-1.69-1.33-4.04-2-7.04-2h-9.97v25.32h6.1v-8.96h3.3l4.47,8.96h6.54v-.26l-5.29-10.22c1.52-.72,2.64-1.66,3.35-2.81Zm-5.89-1.27c-.59.61-1.46.92-2.62.92h-3.86v-6.97h3.86c1.15,0,2.02.31,2.61.93.59.62.89,1.48.89,2.57s-.29,1.94-.88,2.55Z"/><polygon class="cls-1" points="361.37 121.15 378.82 121.15 378.82 116.46 367.48 116.46 367.48 110.41 377.08 110.41 377.08 105.88 367.48 105.88 367.48 100.54 378.85 100.54 378.85 95.83 361.37 95.83 361.37 121.15"/><path class="cls-1" d="m226.34,95.48c-7.47,0-13.53,6.06-13.53,13.53s6.06,13.53,13.53,13.53,13.53-6.06,13.53-13.53-6.06-13.53-13.53-13.53Zm0,22.03c-4.7,0-8.5-3.81-8.5-8.5s3.81-8.5,8.5-8.5,8.5,3.81,8.5,8.5-3.81,8.5-8.5,8.5Z"/><path class="cls-1" d="m56.7,55.93c2.83-2.51,7.23-6,12.3-8.51,1.09-.54,1.29-2.01.4-2.83l-6.73-6.22c-.73-.67-1.86-.61-2.5.14-1.83,2.12-5.12,7.04-6.35,15.88-.22,1.6,1.67,2.61,2.88,1.54Z"/><path class="cls-1" d="m148.1,91.31l-3.53-.88c-.19.75-.58,2.13-1.24,3.86l-2.53-1.39-1.76,3.19,2.81,1.55c-.78,1.55-1.74,3.2-2.94,4.83l-2.23-2.07-2.48,2.67,2.39,2.22c-1.5,1.6-3.25,3.11-5.3,4.4l-2.06-4.18-3.26,1.61,2.11,4.26c-2.18.96-4.62,1.66-7.37,2.01l-.68-5.69-3.62.43.66,5.49c-12.74-.03-16.15-9.62-16.83-12.14l5.77-7.52c.7-.91.27-2.17-.88-2.57,0,0-3.89-1.42-6.82-1.42s-6.82,1.42-6.82,1.42c-1.15.4-1.59,1.66-.88,2.57l5.77,7.52c-.68,2.53-4.1,12.11-16.83,12.14l.66-5.49-3.62-.43-.68,5.69c-2.75-.35-5.19-1.05-7.37-2.01l2.1-4.26-3.26-1.61-2.06,4.18c-2.05-1.28-3.8-2.79-5.3-4.4l2.39-2.22-2.48-2.67-2.23,2.07c-1.19-1.63-2.16-3.28-2.94-4.83l2.81-1.54-1.76-3.19-2.53,1.39c-.67-1.73-1.06-3.11-1.24-3.86l-3.53.88c.22.9.71,2.61,1.56,4.75l-3.56,1.96,1.76,3.19,3.31-1.82c.9,1.79,2.03,3.7,3.44,5.58l-3.55,3.3,2.48,2.67,3.41-3.17c1.77,1.91,3.87,3.7,6.34,5.21l-2.2,4.46,3.26,1.61,2.17-4.39c2.52,1.12,5.36,1.94,8.56,2.34l-.6,5.01,3.62.43.62-5.17c2.94.04,5.52-.38,7.77-1.1l.89,3.88,3.55-.82-1.04-4.51c3.88-2.1,6.46-5.2,8.03-8.17,1.57,2.97,4.15,6.07,8.03,8.16l-1.04,4.51,3.55.82.89-3.88c2.16.7,4.62,1.11,7.41,1.11.11,0,.23,0,.35,0l.62,5.18,3.62-.43-.6-5.01c3.2-.4,6.04-1.22,8.56-2.34l2.17,4.39,3.26-1.61-2.2-4.46c2.48-1.5,4.57-3.3,6.34-5.21l3.41,3.17,2.48-2.67-3.55-3.3c1.4-1.88,2.53-3.79,3.44-5.58l3.31,1.82,1.76-3.19-3.56-1.96c.85-2.13,1.34-3.85,1.56-4.75Z"/><path class="cls-1" d="m173.96,104.62l1.52-3.31c-6.37-2.94-11.51-4.35-14.46-4.99.01-2.27-.11-4.62-.38-7.05-.81-7.37-2.74-14.21-5.74-20.34.03-28.28-16.16-43.06-16.86-43.68-.79-.7-1.93-.85-2.87-.36-.55.29-12.57,6.59-17.22,14.37-6.34-1.8-12.95-2.7-19.66-2.7s-13.32.91-19.66,2.7c-4.65-7.78-16.66-14.09-17.22-14.37-.94-.49-2.08-.34-2.87.36-.49.43-11.97,10.88-15.71,30.97-.76,4.11-1.15,8.39-1.15,12.71-2.99,6.13-4.92,12.97-5.74,20.34-.27,2.43-.39,4.78-.38,7.05-2.95.65-8.09,2.06-14.46,4.99l1.52,3.31c5.61-2.59,10.25-3.93,13.08-4.59.13,1.74.35,3.44.66,5.08-2.81.79-7.94,2.42-15.22,5.54l1.43,3.35c6.94-2.97,11.89-4.56,14.61-5.33.51,1.82,1.14,3.57,1.89,5.25-2.58.84-7.64,2.73-14.44,6.39l1.73,3.21c7.08-3.81,12.24-5.63,14.39-6.31,1.24,2.16,2.69,4.18,4.37,6.06,10.16,11.34,28.04,17.1,53.15,17.1s42.99-5.75,53.15-17.1c1.68-1.88,3.13-3.91,4.37-6.06,2.15.67,7.31,2.49,14.39,6.31l1.73-3.21c-6.8-3.66-11.86-5.55-14.44-6.39.75-1.68,1.38-3.43,1.89-5.25,2.72.77,7.67,2.36,14.61,5.33l1.43-3.35c-7.28-3.12-12.41-4.75-15.22-5.54.31-1.64.53-3.33.66-5.08,2.84.66,7.47,2,13.08,4.59Zm-26.3,15.24c-9.15,10.22-25.76,15.4-49.35,15.4s-40.2-5.18-49.35-15.4c-6.64-7.41-9.3-17.51-7.93-30.03.77-6.98,2.62-13.43,5.5-19.16.18-.36.28-.76.27-1.17-.04-4.21.32-8.36,1.06-12.35,2.7-14.53,9.95-23.65,12.86-26.83,4.37,2.53,12.24,7.89,14.24,12.94.49,1.24,1.86,1.89,3.14,1.49,6.48-2.05,13.28-3.09,20.21-3.09s13.73,1.04,20.21,3.09c1.28.41,2.65-.25,3.14-1.49,2.01-5.05,9.87-10.41,14.25-12.94,3.65,3.98,14.11,17.28,13.91,39.18,0,.41.09.81.27,1.17,2.88,5.73,4.73,12.17,5.5,19.16,1.38,12.51-1.29,22.61-7.93,30.03Z"/><path class="cls-1" d="m127.59,47.42c5.07,2.51,9.48,6,12.3,8.51,1.21,1.07,3.1.06,2.88-1.54-1.22-8.83-4.52-13.75-6.35-15.88-.64-.75-1.78-.81-2.5-.14l-6.73,6.22c-.89.82-.69,2.29.4,2.83Z"/><circle class="cls-1" cx="72.81" cy="76.4" r="14.67" transform="translate(-32.7 73.86) rotate(-45)"/><circle class="cls-1" cx="123.72" cy="76.47" r="14.74"/></svg>